<?xml version="1.0" encoding="iso-8859-1"?>
<!-- Generator: Adobe Illustrator 15.0.0, SVG Export Plug-In . SVG Version: 6.00 Build 0)  -->
<!DOCTYPE svg PUBLIC "-//W3C//DTD SVG 1.1//EN" "http://www.w3.org/Graphics/SVG/1.1/DTD/svg11.dtd">
<svg version="1.1" id="Layer_1" xmlns="http://www.w3.org/2000/svg" xmlns:xlink="http://www.w3.org/1999/xlink" x="0px" y="0px"
	 width="195px" height="60px" viewBox="0 0 195 60" style="enable-background:new 0 0 195 60;" xml:space="preserve">
<g>
	<defs>
		<path id="SVGID_1_" d="M38.67,10.373c-0.729,0.429-1.131,1.18-1.141,1.952c-0.015,0.42,0.098,0.85,0.333,1.238l7.738,12.512
			c0.68,1.104,2.131,1.458,3.252,0.798c1.123-0.667,1.496-2.099,0.812-3.189l-7.742-12.519c-0.443-0.727-1.23-1.127-2.033-1.127
			C39.473,10.039,39.051,10.147,38.67,10.373"/>
	</defs>
	<clipPath id="SVGID_2_">
		<use xlink:href="#SVGID_1_"  style="overflow:visible;"/>
	</clipPath>
	
		<linearGradient id="SVGID_3_" gradientUnits="userSpaceOnUse" x1="48.834" y1="46.0254" x2="50.7136" y2="46.0254" gradientTransform="matrix(-7.8194 -1.6621 -1.6621 7.8194 509.4388 -258.4151)">
		<stop  offset="0" style="stop-color:#FFFFFF"/>
		<stop  offset="0.4005" style="stop-color:#F6F6F7"/>
		<stop  offset="0.6788" style="stop-color:#BCBEC0"/>
		<stop  offset="1" style="stop-color:#BCBEC0"/>
	</linearGradient>
	<polygon style="clip-path:url(#SVGID_2_);fill:url(#SVGID_3_);" points="49.794,30.092 33.885,26.778 38.069,7.48 53.979,10.794 	
		"/>
</g>
<g>
	<defs>
		<rect id="SVGID_4_" y="0" width="195" height="59"/>
	</defs>
	<clipPath id="SVGID_5_">
		<use xlink:href="#SVGID_4_"  style="overflow:visible;"/>
	</clipPath>
	<path style="clip-path:url(#SVGID_5_);fill:#FFFFFF;" d="M2.374,55.258c-0.792,0-1.563-0.389-2.013-1.092
		c-0.694-1.086-0.359-2.52,0.753-3.201l15.949-9.734c1.106-0.689,2.574-0.348,3.266,0.736c0.693,1.086,0.36,2.52-0.749,3.203
		L3.628,54.898C3.238,55.145,2.801,55.258,2.374,55.258"/>
	<path style="clip-path:url(#SVGID_5_);fill:#FFFFFF;" d="M47.978,27.238c-0.792,0-1.559-0.385-2.012-1.091
		c-0.692-1.087-0.36-2.52,0.753-3.202L67.872,9.969c1.102-0.688,2.57-0.349,3.263,0.733c0.698,1.089,0.363,2.526-0.747,3.204
		L49.231,26.884C48.844,27.125,48.406,27.238,47.978,27.238"/>
	<path style="clip-path:url(#SVGID_5_);fill:#FFFFFF;" d="M56.429,9.057l0.011-0.005c-0.015-0.015-0.036-0.046-0.047-0.064
		c-0.052-0.086-0.112-0.168-0.177-0.249c-0.044-0.072-0.087-0.149-0.138-0.193C50.65,3.282,43.215,0,34.989,0
		C18.396,0,4.897,13.234,4.897,29.5c0,7.65,2.985,14.605,7.875,19.853l3.698-2.268C11.962,42.529,9.191,36.332,9.191,29.5
		c0-13.945,11.57-25.286,25.798-25.286c7.03,0,13.368,2.811,18.021,7.299c0.021,0.021,0.038,0.033,0.059,0.052
		c0.015,0.015,0.03,0.021,0.042,0.037l0.003-0.002c0.378,0.333,0.879,0.544,1.426,0.544c1.187,0,2.149-0.939,2.149-2.104
		C56.689,9.68,56.592,9.352,56.429,9.057"/>
	<path style="clip-path:url(#SVGID_5_);fill:#FFFFFF;" d="M60.759,14.346l-3.641,2.23c2.308,3.785,3.659,8.2,3.659,12.923
		c0,13.942-11.564,25.284-25.788,25.284c-5.105,0-9.858-1.488-13.867-4.01l-0.006,0.006c-0.309-0.17-0.658-0.277-1.041-0.277
		c-1.187,0-2.151,0.943-2.151,2.105c0,0.752,0.408,1.408,1.006,1.779v0.002C23.587,57.291,29.082,59,34.989,59
		c16.596,0,30.094-13.236,30.094-29.5C65.083,23.953,63.484,18.781,60.759,14.346"/>
</g>
<g>
	<defs>
		<path id="SVGID_6_" d="M38.28,10.695c-0.311,0.29-0.54,0.67-0.653,1.11l-7.814,31.169c-0.314,1.248,0.458,2.508,1.728,2.813
			c1.274,0.309,2.568-0.445,2.872-1.693l7.814-31.175c0.32-1.244-0.458-2.506-1.727-2.811c-0.19-0.047-0.383-0.07-0.572-0.07
			C39.304,10.039,38.714,10.283,38.28,10.695"/>
	</defs>
	<clipPath id="SVGID_7_">
		<use xlink:href="#SVGID_6_"  style="overflow:visible;"/>
	</clipPath>
	
		<linearGradient id="SVGID_8_" gradientUnits="userSpaceOnUse" x1="47.646" y1="45.0703" x2="49.5319" y2="45.0703" gradientTransform="matrix(-11.8383 4.783 4.783 11.8383 395.7091 -737.9064)">
		<stop  offset="0" style="stop-color:#FFFFFF"/>
		<stop  offset="0.6182" style="stop-color:#F6F6F7"/>
		<stop  offset="0.8911" style="stop-color:#BCBEC0"/>
		<stop  offset="1" style="stop-color:#BCBEC0"/>
	</linearGradient>
	<polygon style="clip-path:url(#SVGID_7_);fill:url(#SVGID_8_);" points="55.324,41.035 31.33,50.537 16.721,15.099 40.715,5.597 	
		"/>
</g>
<g>
	<defs>
		<path id="SVGID_9_" d="M21.194,25.763c-0.722,0.43-1.13,1.178-1.14,1.953c-0.011,0.422,0.1,0.847,0.341,1.236l9.619,15.774
			c0.672,1.105,2.128,1.459,3.251,0.799c1.12-0.664,1.488-2.1,0.806-3.189l-9.622-15.78c-0.443-0.727-1.227-1.128-2.029-1.128
			C22.001,25.427,21.578,25.536,21.194,25.763"/>
	</defs>
	<clipPath id="SVGID_10_">
		<use xlink:href="#SVGID_9_"  style="overflow:visible;"/>
	</clipPath>
	
		<linearGradient id="SVGID_11_" gradientUnits="userSpaceOnUse" x1="48.9932" y1="47.002" x2="50.8731" y2="47.002" gradientTransform="matrix(-9.1434 -1.9435 -1.9435 9.1434 575.1125 -296.9521)">
		<stop  offset="0" style="stop-color:#FFFFFF"/>
		<stop  offset="0.58" style="stop-color:#F6F6F7"/>
		<stop  offset="0.8325" style="stop-color:#BCBEC0"/>
		<stop  offset="1" style="stop-color:#BCBEC0"/>
	</linearGradient>
	<polygon style="clip-path:url(#SVGID_10_);fill:url(#SVGID_11_);" points="34.117,49.119 15.736,45.289 20.679,22.495 
		39.06,26.324 	"/>
</g>
<g>
	<defs>
		<rect id="SVGID_12_" y="0" width="195" height="59"/>
	</defs>
	<clipPath id="SVGID_13_">
		<use xlink:href="#SVGID_12_"  style="overflow:visible;"/>
	</clipPath>
	<path style="clip-path:url(#SVGID_13_);fill:#FFFFFF;" d="M20.043,44.563c-0.57,0.539-1.397,0.789-2.219,0.59
		c-1.269-0.311-2.05-1.572-1.729-2.816l3.944-15.127c0.3-1.248,1.599-2,2.867-1.697c1.273,0.312,2.049,1.569,1.727,2.817
		l-3.941,15.128C20.586,43.895,20.351,44.271,20.043,44.563"/>
	<path style="clip-path:url(#SVGID_13_);fill:#FFFFFF;" d="M97.053,4.739c6.947,0,11.738,5.072,11.738,11.345
		c0,6.273-4.791,11.345-11.738,11.345c-6.945,0-11.734-5.071-11.734-11.345C85.319,9.811,90.107,4.739,97.053,4.739 M97.053,23.649
		c4.247,0,7.4-3.407,7.4-7.565c0-4.163-3.153-7.565-7.4-7.565c-4.246,0-7.395,3.402-7.395,7.565
		C89.658,20.242,92.807,23.649,97.053,23.649"/>
	<path style="clip-path:url(#SVGID_13_);fill:#FFFFFF;" d="M112.175,27.112V11.828h4.021v1.231c1.225-1.075,2.701-1.543,4.212-1.543
		c2.118,0,4.02,0.943,5.239,2.393c1.254-1.292,3.215-2.393,5.533-2.393c2.156,0,4.212,0.943,5.461,2.455
		c1,1.199,1.574,2.774,1.574,5.042v8.099h-4.176v-8.253c0-1.389-0.287-2.081-0.768-2.618c-0.645-0.69-1.547-0.939-2.352-0.939
		c-1.801,0-3.217,1.226-3.759,2.013c0.064,0.506,0.126,1.072,0.126,1.699v8.099h-4.178v-8.253c0-1.389-0.291-2.081-0.774-2.618
		c-0.645-0.69-1.544-0.939-2.346-0.939c-1.767,0-3.056,1.163-3.632,1.88v9.93H112.175z"/>
	<path style="clip-path:url(#SVGID_13_);fill:#FFFFFF;" d="M156.01,24.688c-1.512,1.767-3.98,2.741-6.396,2.741
		c-4.66,0-8.174-3.152-8.174-7.941c0-4.256,2.97-7.974,7.597-7.974c4.313,0,7.361,3.561,7.361,7.818
		c0,0.405-0.031,0.818-0.094,1.163h-10.809c0.23,2.141,1.997,3.622,4.217,3.622c1.766,0,3.177-0.974,3.92-1.761L156.01,24.688z
		 M152.122,17.501c-0.128-1.354-1.381-2.675-3.085-2.675c-1.735,0-3.154,1.292-3.348,2.675H152.122z"/>
	<path style="clip-path:url(#SVGID_13_);fill:#FFFFFF;" d="M175.21,26.265c0,2.739-0.481,4.377-1.411,5.67
		c-1.411,1.922-3.92,3.057-6.912,3.057c-3.055,0-5.949-1.389-7.492-3.148l2.634-2.682c0.841,0.881,2.289,2.209,4.858,2.209
		c1.349,0,2.474-0.412,3.183-1.23c0.644-0.692,0.963-1.639,0.963-3.593v-0.504c-1.254,0.942-2.603,1.385-4.181,1.385
		c-2.313,0-4.53-1.005-5.914-2.584c-1.225-1.383-1.962-3.276-1.962-5.356c0-4.508,3.41-7.973,7.655-7.973
		c1.768,0,3.34,0.563,4.564,1.542v-1.229h4.015V26.265z M171.032,17.183c-0.869-1.131-2.252-1.882-3.861-1.882
		c-2.439,0-4.014,1.981-4.014,4.188c0,2.395,1.766,4.16,4.113,4.16c1.574,0,2.956-0.756,3.762-1.892V17.183z"/>
	<path style="clip-path:url(#SVGID_13_);fill:#FFFFFF;" d="M194.992,27.113h-4.021v-1.226c-1.292,1.07-2.764,1.541-4.342,1.541
		c-2.318,0-4.497-1.005-5.881-2.584c-1.223-1.383-1.996-3.276-1.996-5.356c0-4.508,3.41-7.973,7.653-7.973
		c1.769,0,3.347,0.563,4.565,1.542v-1.229h4.021V27.113z M190.814,17.183c-0.87-1.131-2.26-1.882-3.86-1.882
		c-2.444,0-4.021,1.981-4.021,4.188c0,2.395,1.767,4.16,4.117,4.16c1.57,0,2.956-0.756,3.764-1.892V17.183z"/>
	<polygon style="clip-path:url(#SVGID_13_);fill:#FFFFFF;" points="106.896,44.527 115.092,31.324 118.152,31.324 118.152,53.383 
		113.81,53.383 113.81,41.096 108.407,49.76 105.387,49.76 99.984,41.096 99.984,53.383 95.64,53.383 95.64,31.324 98.696,31.324 	
		"/>
	<path style="clip-path:url(#SVGID_13_);fill:#FFFFFF;" d="M136.43,50.957c-1.516,1.764-3.99,2.74-6.404,2.74
		c-4.661,0-8.168-3.146-8.168-7.938c0-4.262,2.963-7.979,7.594-7.979c4.308,0,7.362,3.566,7.362,7.82
		c0,0.408-0.034,0.82-0.099,1.162h-10.809c0.231,2.146,1.998,3.625,4.217,3.625c1.771,0,3.178-0.977,3.92-1.764L136.43,50.957z
		 M132.533,43.768c-0.128-1.352-1.383-2.672-3.082-2.672c-1.739,0-3.152,1.289-3.354,2.672H132.533z"/>
	<path style="clip-path:url(#SVGID_13_);fill:#FFFFFF;" d="M151.606,53.383v-1.229c-1.284,1.072-2.76,1.543-4.339,1.543
		c-2.313,0-4.498-1.006-5.891-2.584c-1.214-1.383-1.985-3.275-1.985-5.354c0-4.508,3.403-7.979,7.648-7.979
		c1.702,0,3.191,0.475,4.404,1.42v-8.193h4.182v22.375H151.606z M151.444,43.455c-0.866-1.135-2.249-1.895-3.857-1.895
		c-2.439,0-4.018,1.988-4.018,4.199c0,2.393,1.77,4.16,4.116,4.16c1.576,0,2.956-0.76,3.759-1.895V43.455z"/>
	<rect x="160.457" y="38.1" style="clip-path:url(#SVGID_13_);fill:#FFFFFF;" width="4.182" height="15.283"/>
	<path style="clip-path:url(#SVGID_13_);fill:#FFFFFF;" d="M184.411,53.383h-4.015v-1.229c-1.295,1.072-2.767,1.543-4.344,1.543
		c-2.314,0-4.493-1.006-5.879-2.584c-1.222-1.383-1.999-3.275-1.999-5.354c0-4.508,3.415-7.979,7.651-7.979
		c1.767,0,3.34,0.572,4.57,1.547v-1.227h4.015V53.383z M180.229,43.455c-0.874-1.135-2.248-1.895-3.859-1.895
		c-2.438,0-4.012,1.988-4.012,4.199c0,2.393,1.764,4.16,4.111,4.16c1.576,0,2.955-0.76,3.76-1.895V43.455z"/>
</g>
</svg>
